<svg data-v-fde0c5aa="" xmlns="http://www.w3.org/2000/svg" viewBox="0 0 300 300" class="iconLeftSlogan"><!----><defs data-v-fde0c5aa=""><!----></defs><rect data-v-fde0c5aa="" fill="#ECE0E8" x="0" y="0" width="300px" height="300px" class="logo-background-square"></rect><defs data-v-fde0c5aa=""><!----></defs><g data-v-fde0c5aa="" id="da5ae9fd-4ba4-40c2-a54c-e57ac3975a9d" fill="#230A1B" transform="matrix(3.5800945226457475,0,0,3.5800945226457475,113.00131654433713,118.8058392992366)"><path d="M1.97 10.50L1.20 10.50L1.20 1.33L5.99 1.33L5.99 2.04L1.97 2.04L1.97 6.05L5.42 6.05L5.42 6.75L1.97 6.75L1.97 10.50ZM12.95 10.50L12.24 10.50L12.21 9.93L12.21 9.93Q10.86 10.63 9.97 10.63L9.97 10.63L9.97 10.63Q9.07 10.63 8.55 10.01L8.55 10.01L8.55 10.01Q8.04 9.39 8.04 8.33L8.04 8.33L8.04 3.85L8.78 3.85L8.78 8.33L8.78 8.33Q8.78 9.02 9.11 9.46L9.11 9.46L9.11 9.46Q9.44 9.90 10.11 9.90L10.11 9.90L10.11 9.90Q10.78 9.90 12.21 9.20L12.21 9.20L12.21 3.85L12.95 3.85L12.95 10.50ZM15.06 3.85L15.78 3.85L15.81 4.41L15.81 4.41Q17.16 3.77 18.06 3.77L18.06 3.77L18.06 3.77Q18.96 3.77 19.47 4.38L19.47 4.38L19.47 4.38Q19.98 5.00 19.98 6.06L19.98 6.06L19.98 10.50L19.24 10.50L19.24 6.06L19.24 6.06Q19.24 5.38 18.90 4.93L18.90 4.93L18.90 4.93Q18.56 4.49 17.89 4.49L17.89 4.49L17.89 4.49Q17.22 4.49 15.81 5.11L15.81 5.11L15.81 10.50L15.06 10.50L15.06 3.85ZM26.25 1.20L26.99 1.20L26.99 9.34L27.13 10.56L26.42 10.64L26.28 9.90L26.28 9.90Q25.23 10.63 24.35 10.63L24.35 10.63L24.35 10.63Q23.10 10.63 22.41 9.70L22.41 9.70L22.41 9.70Q21.71 8.78 21.71 7.19L21.71 7.19L21.71 7.19Q21.71 5.60 22.48 4.68L22.48 4.68L22.48 4.68Q23.25 3.77 24.58 3.77L24.58 3.77L24.58 3.77Q25.37 3.77 26.25 4.14L26.25 4.14L26.25 1.20ZM22.51 7.17L22.51 7.17L22.51 7.17Q22.51 8.40 23.00 9.15L23.00 9.15L23.00 9.15Q23.48 9.90 24.39 9.90L24.39 9.90L24.39 9.90Q25.30 9.90 26.25 9.10L26.25 9.10L26.25 4.90L26.25 4.90Q25.96 4.76 25.45 4.63L25.45 4.63L25.45 4.63Q24.93 4.49 24.61 4.49L24.61 4.49L24.61 4.49Q23.62 4.49 23.07 5.21L23.07 5.21L23.07 5.21Q22.51 5.94 22.51 7.17ZM28.49 3.85L29.19 3.85L29.23 4.27L29.23 4.27Q29.93 3.77 30.31 3.77L30.31 3.77L30.31 3.77Q31.23 3.77 31.58 4.37L31.58 4.37L31.58 4.37Q32.37 3.77 32.96 3.77L32.96 3.77L32.96 3.77Q33.87 3.77 34.20 4.33L34.20 4.33L34.20 4.33Q34.54 4.89 34.54 6.05L34.54 6.05L34.54 10.50L33.80 10.50L33.80 6.05L33.80 6.05Q33.80 5.25 33.63 4.87L33.63 4.87L33.63 4.87Q33.46 4.48 32.98 4.48L32.98 4.48L32.98 4.48Q32.51 4.48 31.81 4.93L31.81 4.93L31.81 4.93Q31.89 5.40 31.89 6.05L31.89 6.05L31.89 8.37L31.15 8.37L31.15 6.05L31.15 6.05Q31.15 5.25 30.98 4.87L30.98 4.87L30.98 4.87Q30.80 4.48 30.32 4.48L30.32 4.48L30.32 4.48Q29.85 4.48 29.23 4.93L29.23 4.93L29.23 10.50L28.49 10.50L28.49 3.85ZM35.94 7.18L35.94 7.18L35.94 7.18Q35.94 5.57 36.60 4.67L36.60 4.67L36.60 4.67Q37.27 3.77 38.54 3.77L38.54 3.77L38.54 3.77Q39.82 3.77 40.44 4.61L40.44 4.61L40.44 4.61Q41.06 5.45 41.06 6.85L41.06 6.85L41.02 7.55L36.74 7.55L36.74 7.55Q36.81 8.60 37.30 9.25L37.30 9.25L37.30 9.25Q37.79 9.90 38.65 9.90L38.65 9.90L38.65 9.90Q39.51 9.90 40.67 9.49L40.67 9.49L40.88 10.19L40.88 10.19Q39.75 10.63 38.75 10.63L38.75 10.63L38.75 10.63Q37.38 10.63 36.66 9.71L36.66 9.71L36.66 9.71Q35.94 8.79 35.94 7.18ZM38.60 4.48L38.60 4.48L38.60 4.48Q36.83 4.48 36.74 6.85L36.74 6.85L40.26 6.85L40.26 6.85Q40.26 4.48 38.60 4.48Z"></path></g><defs data-v-fde0c5aa=""><linearGradient data-v-fde0c5aa="" gradientTransform="rotate(25)" id="6464ddc9-ee05-49e2-afc5-ce20ed0fa447" x1="0%" y1="0%" x2="100%" y2="0%"><stop data-v-fde0c5aa="" offset="0%" stop-color="#1E0B36" stop-opacity="1"></stop><stop data-v-fde0c5aa="" offset="100%" stop-color="#CA3782" stop-opacity="1"></stop></linearGradient></defs><g data-v-fde0c5aa="" id="9c8dcb9f-973c-4405-9080-c513de6a7688" stroke="none" fill="url(#6464ddc9-ee05-49e2-afc5-ce20ed0fa447)" transform="matrix(0.08889405185673942,0,0,0.08889405185673942,34.72825386193648,97.09776294075905)"><path d="M779.3 464.9l-63.8 175-59.3 212.3c-36.3 120.9-96.7 164-207.8 163.8-95.6-.1-155-39.5-211.3-128.4l-171.6-290c-12.6-25.2-5.3-49.8 15.7-61.2 21-11.3 46.7-8.2 64.8 17.2 5.7 8 33.5 44.8 64.2 86.3l.1.1c13 18.7 30.8 42.2 52.8 71.8l65.9 95.6 55 86.3c5.1 9.2 15.5 13.7 24 8.5 8.2-5 10.8-12.9 5.2-24.1L377 802c-2.1-4.3 3.5-8.1 6.7-4.5l86.8 112.7c7.4 8.3 22.5 13.2 31.4 5.3 8.9-7.9 7.6-21.5.5-30.9l-73.2-103.8c-2.7-3.5 2.3-7.8 5.4-4.7l102.1 107.1c7.4 8.3 22.2 11.9 31.1 4 8.9-7.9 7.6-21.8-.1-30.7L459 737.8c-2.6-3 1.2-7.3 4.5-5l92.2 70.3c11.3 7.9 25.4 9.2 33 0 8.5-10.2 1.5-24.6-8-32.3l-132.9-112c-21.2-16.6-13.5-34.9 12.8-34.2 33.5 1 71.1 1.5 77.5 1.7 15.1.6 23.9-8.3 25.8-19.7 1.9-11.4-5.4-21.5-18.8-24.2l-162-20.5c-19.9-1.9-43-4.3-66.5-5.7l9.2-261.8c.4-25.3 16.5-48.1 43.9-47.3 24.6.7 42.7 21.2 44.1 49.6l3.9 220.8c.3 8.3 12.2 9.2 13.8 1L481.4 210c4.7-23.8 27.7-39.5 51.8-35 24.2 4.5 39.9 28.7 35.7 51.3l-39.3 280.4c-1.2 9.1 12 11.7 14.4 2.9l66.8-229.2c6.3-23.5 27.9-38.2 52-33.7 24.2 4.5 38.9 31 34.7 53.5l-67.2 263.1c-1.7 9.6 11.6 14 15.9 5.2l66.2-130c11.2-23.3 29.3-29 47.8-22 18.9 7.3 27.7 28.4 19.1 48.4z"></path></g><defs data-v-fde0c5aa=""><!----></defs><g data-v-fde0c5aa="" id="59e2c503-8f69-4172-9cd7-252e4329b14c" fill="#230A1B" transform="matrix(0.5278828725855317,0,0,0.5278828725855317,116.92791213770722,164.8340250257583)"><path d="M10.43 4.44C10.61 4.42 10.71 4.34 10.71 4.19L10.71 3.92L9.53 3.92L8.81 3.92L7.63 3.92L7.63 4.19C7.63 4.34 7.73 4.42 7.91 4.44L8.04 4.44C8.11 4.44 8.22 4.45 8.36 4.45C8.50 4.45 8.64 4.47 8.81 4.47L8.81 8.53L2.60 8.53L2.60 4.47C2.77 4.47 2.93 4.45 3.07 4.45C3.21 4.45 3.30 4.44 3.37 4.44L3.51 4.44C3.70 4.42 3.78 4.34 3.78 4.19L3.78 3.92L2.60 3.92L1.89 3.92L0.70 3.92L0.70 4.19C0.70 4.34 0.80 4.42 0.98 4.44L1.12 4.44C1.19 4.44 1.29 4.45 1.43 4.45C1.57 4.45 1.72 4.47 1.89 4.47L1.89 13.26C1.72 13.26 1.57 13.27 1.43 13.27C1.29 13.27 1.19 13.29 1.12 13.29L0.98 13.29C0.80 13.30 0.70 13.38 0.70 13.54L0.70 13.82L1.89 13.82L2.60 13.82L3.78 13.82L3.78 13.54C3.78 13.38 3.70 13.30 3.51 13.29L3.37 13.29C3.30 13.29 3.21 13.27 3.07 13.27C2.93 13.27 2.77 13.26 2.60 13.26L2.60 9.07L8.81 9.07L8.81 13.26C8.64 13.26 8.50 13.27 8.36 13.27C8.22 13.27 8.11 13.29 8.04 13.29L7.91 13.29C7.73 13.30 7.63 13.38 7.63 13.54L7.63 13.82L8.81 13.82L9.53 13.82L10.71 13.82L10.71 13.54C10.71 13.38 10.61 13.30 10.43 13.29L10.30 13.29C10.23 13.29 10.12 13.27 9.98 13.27C9.84 13.27 9.70 13.26 9.53 13.26L9.53 4.47C9.70 4.47 9.84 4.45 9.98 4.45C10.12 4.45 10.23 4.44 10.30 4.44ZM20.24 3.92L19.05 3.92L19.05 4.19C19.05 4.34 19.15 4.42 19.33 4.44L19.47 4.44C19.54 4.44 19.64 4.45 19.78 4.45C19.92 4.45 20.08 4.47 20.24 4.47L20.24 13.26C20.08 13.26 19.92 13.27 19.78 13.27C19.64 13.27 19.54 13.29 19.47 13.29L19.33 13.29C19.15 13.30 19.07 13.38 19.07 13.54L19.07 13.82L20.24 13.82L26.18 13.82L26.18 13.22L26.18 11.76L25.83 11.76C25.63 11.76 25.55 11.89 25.54 12.11C25.54 12.14 25.52 12.19 25.52 12.29C25.52 12.39 25.52 12.53 25.51 12.74C25.49 12.95 25.48 13.09 25.48 13.22L20.96 13.22L20.96 9.09L24.91 9.09L24.91 8.51L20.96 8.51L20.96 4.51L25.48 4.51C25.51 5.12 25.54 5.50 25.54 5.63C25.55 5.85 25.63 5.96 25.83 5.96L26.18 5.96L26.18 4.51L26.18 3.92ZM41.13 11.97C40.94 11.97 40.85 12.08 40.84 12.31C40.84 12.32 40.84 12.38 40.82 12.43C40.81 12.49 40.81 12.59 40.80 12.71C40.78 12.84 40.77 13.01 40.75 13.20L36.67 13.20L36.67 4.47C36.83 4.47 36.97 4.45 37.11 4.45C37.25 4.45 37.37 4.44 37.44 4.44L37.56 4.44C37.74 4.42 37.84 4.34 37.84 4.19L37.84 3.92L36.67 3.92L35.95 3.92L34.76 3.92L34.76 4.19C34.76 4.34 34.86 4.42 35.04 4.44L35.18 4.44C35.25 4.44 35.35 4.45 35.49 4.45C35.63 4.45 35.78 4.47 35.95 4.47L35.95 13.26C35.78 13.26 35.63 13.27 35.49 13.27C35.35 13.27 35.25 13.29 35.18 13.29L35.04 13.29C34.86 13.30 34.76 13.38 34.76 13.54L34.76 13.82L35.95 13.82L41.23 13.82L41.36 13.82L41.48 13.82L41.48 13.55L41.48 12.99L41.48 11.97L41.20 11.97ZM56.14 4.68C55.55 4.17 54.67 3.92 53.51 3.92L51.10 3.92L49.91 3.92L49.91 4.19C49.91 4.34 50.01 4.42 50.19 4.44L50.33 4.44C50.40 4.44 50.50 4.45 50.64 4.45C50.78 4.45 50.93 4.47 51.10 4.47L51.10 13.26C50.93 13.26 50.78 13.27 50.64 13.27C50.50 13.27 50.40 13.29 50.33 13.29L50.19 13.29C50.01 13.30 49.91 13.38 49.91 13.54L49.91 13.82L51.10 13.82L51.81 13.82L52.99 13.82L52.99 13.54C52.99 13.38 52.89 13.30 52.71 13.29L52.58 13.29C52.51 13.29 52.40 13.27 52.26 13.27C52.12 13.27 51.98 13.26 51.81 13.26L51.81 9.83L53.51 9.83C54.05 9.83 54.54 9.74 54.98 9.60C55.41 9.45 55.78 9.25 56.08 8.99C56.39 8.72 56.63 8.41 56.78 8.05C56.95 7.69 57.02 7.29 57.02 6.86C57.02 5.92 56.73 5.18 56.14 4.68ZM56.11 7.81C55.99 8.11 55.80 8.36 55.57 8.57C55.33 8.78 55.03 8.95 54.68 9.07C54.33 9.20 53.94 9.25 53.51 9.25L51.81 9.25L51.81 4.48L53.51 4.48C54.43 4.48 55.13 4.69 55.61 5.10C56.07 5.50 56.31 6.09 56.31 6.85C56.31 7.20 56.24 7.52 56.11 7.81ZM84.88 13.22L84.42 13.17L80.64 3.91L79.93 3.91L76.13 13.17L75.68 13.22C75.50 13.23 75.42 13.33 75.42 13.50L75.42 13.82L75.87 13.82L76.16 13.82L76.41 13.82L76.51 13.82L77.83 13.82L77.83 13.50C77.83 13.31 77.71 13.23 77.50 13.22C77.49 13.22 77.46 13.20 77.42 13.20C77.38 13.20 77.32 13.19 77.22 13.19C77.13 13.19 77 13.19 76.86 13.17L77.84 10.75L77.91 10.57L82.64 10.57L82.71 10.75L83.69 13.17C83.55 13.19 83.44 13.19 83.34 13.19C83.24 13.19 83.17 13.20 83.13 13.20C83.09 13.20 83.06 13.22 83.05 13.22C82.84 13.23 82.73 13.31 82.73 13.50L82.73 13.82L84.04 13.82L84.14 13.82L84.41 13.82L84.69 13.82L85.15 13.82L85.15 13.50C85.15 13.33 85.06 13.23 84.88 13.22ZM80.08 5.22C80.11 5.14 80.15 5.04 80.18 4.94C80.21 4.84 80.25 4.75 80.28 4.63C80.30 4.75 80.35 4.84 80.37 4.94C80.40 5.04 80.44 5.12 80.47 5.21L82.43 10.04L78.13 10.04ZM102.21 3.92L101.58 3.92L100.37 3.92L100.37 4.19C100.37 4.34 100.46 4.42 100.65 4.44L100.79 4.44C100.86 4.44 100.97 4.45 101.11 4.45C101.25 4.45 101.42 4.47 101.58 4.47L101.58 12.22C101.58 12.35 101.58 12.49 101.60 12.63L95.19 4.05C95.14 3.99 95.12 3.95 95.07 3.93C95.03 3.92 94.99 3.91 94.92 3.91L94.57 3.91L93.38 3.91L93.38 4.19C93.38 4.34 93.48 4.42 93.66 4.44L93.80 4.44C93.87 4.44 93.97 4.45 94.11 4.45C94.25 4.45 94.40 4.47 94.57 4.47L94.57 13.26C94.40 13.26 94.25 13.27 94.11 13.27C93.97 13.27 93.87 13.29 93.80 13.29L93.66 13.29C93.48 13.30 93.38 13.38 93.38 13.54L93.38 13.82L94.57 13.82L95.19 13.82L96.40 13.82L96.40 13.54C96.40 13.38 96.31 13.30 96.12 13.29L95.98 13.29C95.91 13.29 95.79 13.27 95.65 13.27C95.51 13.27 95.35 13.26 95.19 13.26L95.19 5.49C95.19 5.36 95.19 5.22 95.17 5.08L101.61 13.68C101.68 13.78 101.75 13.82 101.86 13.82L102.21 13.82L102.21 4.47C102.38 4.47 102.52 4.45 102.66 4.45C102.80 4.45 102.91 4.44 102.98 4.44L103.11 4.44C103.29 4.42 103.39 4.34 103.39 4.19L103.39 3.92ZM120.43 6.80C120.20 6.19 119.88 5.68 119.46 5.25C119.04 4.82 118.55 4.48 117.98 4.26C117.40 4.03 116.75 3.92 116.05 3.92L112.62 3.92L111.43 3.92L111.43 4.19C111.43 4.34 111.52 4.42 111.71 4.44L111.85 4.44C111.92 4.44 112.01 4.45 112.15 4.45C112.29 4.45 112.45 4.47 112.62 4.47L112.62 13.26C112.45 13.26 112.29 13.27 112.15 13.27C112.01 13.27 111.92 13.29 111.85 13.29L111.71 13.29C111.52 13.30 111.43 13.38 111.43 13.54L111.43 13.82L112.62 13.82L116.05 13.82C116.75 13.82 117.40 13.71 117.98 13.48C118.55 13.26 119.04 12.92 119.46 12.49C119.88 12.05 120.20 11.54 120.43 10.92C120.65 10.30 120.78 9.63 120.78 8.86C120.78 8.11 120.65 7.42 120.43 6.80ZM119.74 10.72C119.55 11.27 119.29 11.72 118.94 12.10C118.59 12.47 118.17 12.75 117.68 12.95C117.19 13.15 116.65 13.24 116.05 13.24L113.33 13.24L113.33 4.49L116.05 4.49C116.65 4.49 117.19 4.59 117.68 4.79C118.17 4.98 118.59 5.26 118.94 5.64C119.29 6.02 119.55 6.47 119.74 7.01C119.94 7.56 120.04 8.18 120.04 8.86C120.04 9.56 119.94 10.18 119.74 10.72ZM146.55 9.52C146.13 9.11 145.53 8.86 144.75 8.75C145.07 8.67 145.35 8.55 145.60 8.40C145.85 8.25 146.08 8.08 146.24 7.87C146.41 7.66 146.55 7.43 146.64 7.20C146.72 6.96 146.78 6.71 146.78 6.44C146.78 6.05 146.69 5.68 146.57 5.38C146.44 5.07 146.23 4.80 145.96 4.58C145.70 4.37 145.36 4.20 144.94 4.09C144.52 3.98 144.03 3.92 143.47 3.92L140.63 3.92L139.44 3.92L139.44 4.19C139.44 4.34 139.54 4.42 139.72 4.44L139.86 4.44C139.93 4.44 140.03 4.45 140.17 4.45C140.31 4.45 140.46 4.47 140.63 4.47L140.63 13.26C140.46 13.26 140.31 13.27 140.17 13.27C140.03 13.27 139.93 13.29 139.86 13.29L139.72 13.29C139.54 13.30 139.45 13.38 139.45 13.54L139.45 13.82L140.63 13.82L143.84 13.82C144.37 13.82 144.83 13.76 145.25 13.64C145.67 13.51 146.02 13.34 146.30 13.10C146.58 12.87 146.80 12.59 146.96 12.25C147.11 11.91 147.18 11.54 147.18 11.12C147.18 10.46 146.97 9.93 146.55 9.52ZM141.34 4.48L143.47 4.48C144.35 4.48 145.01 4.66 145.43 5.00C145.85 5.35 146.06 5.84 146.06 6.51C146.06 6.76 146.02 7.03 145.92 7.27C145.82 7.50 145.67 7.71 145.46 7.91C145.25 8.11 144.98 8.26 144.66 8.37C144.34 8.48 143.95 8.55 143.49 8.55L141.34 8.55ZM145.80 12.68C145.35 13.06 144.69 13.24 143.82 13.24L141.34 13.24L141.34 9.07L143.84 9.07C144.26 9.07 144.62 9.11 144.94 9.21C145.26 9.31 145.54 9.45 145.77 9.62C145.99 9.80 146.16 10.00 146.29 10.25C146.40 10.50 146.47 10.79 146.47 11.10C146.47 11.79 146.24 12.31 145.80 12.68ZM156.56 3.92L155.37 3.92L155.37 4.19C155.37 4.34 155.47 4.42 155.65 4.44L155.79 4.44C155.86 4.44 155.96 4.45 156.10 4.45C156.24 4.45 156.39 4.47 156.56 4.47L156.56 13.26C156.39 13.26 156.24 13.27 156.10 13.27C155.96 13.27 155.86 13.29 155.79 13.29L155.65 13.29C155.47 13.30 155.39 13.38 155.39 13.54L155.39 13.82L156.56 13.82L162.50 13.82L162.50 13.22L162.50 11.76L162.15 11.76C161.95 11.76 161.87 11.89 161.85 12.11C161.85 12.14 161.84 12.19 161.84 12.29C161.84 12.39 161.84 12.53 161.83 12.74C161.81 12.95 161.80 13.09 161.80 13.22L157.28 13.22L157.28 9.09L161.22 9.09L161.22 8.51L157.28 8.51L157.28 4.51L161.80 4.51C161.83 5.12 161.85 5.50 161.85 5.63C161.87 5.85 161.95 5.96 162.15 5.96L162.50 5.96L162.50 4.51L162.50 3.92ZM191.18 4.44C191.37 4.42 191.46 4.34 191.46 4.19L191.46 3.92L190.29 3.92L189.56 3.92L188.38 3.92L188.38 4.19C188.38 4.34 188.48 4.42 188.66 4.44L188.79 4.44C188.86 4.44 188.97 4.45 189.11 4.45C189.25 4.45 189.39 4.47 189.56 4.47L189.56 8.53L183.36 8.53L183.36 4.47C183.53 4.47 183.68 4.45 183.82 4.45C183.96 4.45 184.06 4.44 184.13 4.44L184.27 4.44C184.45 4.42 184.53 4.34 184.53 4.19L184.53 3.92L183.36 3.92L182.64 3.92L181.45 3.92L181.45 4.19C181.45 4.34 181.55 4.42 181.73 4.44L181.87 4.44C181.94 4.44 182.04 4.45 182.18 4.45C182.32 4.45 182.48 4.47 182.64 4.47L182.64 13.26C182.48 13.26 182.32 13.27 182.18 13.27C182.04 13.27 181.94 13.29 181.87 13.29L181.73 13.29C181.55 13.30 181.45 13.38 181.45 13.54L181.45 13.82L182.64 13.82L183.36 13.82L184.53 13.82L184.53 13.54C184.53 13.38 184.45 13.30 184.27 13.29L184.13 13.29C184.06 13.29 183.96 13.27 183.82 13.27C183.68 13.27 183.53 13.26 183.36 13.26L183.36 9.07L189.56 9.07L189.56 13.26C189.39 13.26 189.25 13.27 189.11 13.27C188.97 13.27 188.86 13.29 188.79 13.29L188.66 13.29C188.48 13.30 188.38 13.38 188.38 13.54L188.38 13.82L189.56 13.82L190.29 13.82L191.46 13.82L191.46 13.54C191.46 13.38 191.37 13.30 191.18 13.29L191.06 13.29C190.99 13.29 190.88 13.27 190.74 13.27C190.60 13.27 190.46 13.26 190.29 13.26L190.29 4.47C190.46 4.47 190.60 4.45 190.74 4.45C190.88 4.45 190.99 4.44 191.06 4.44ZM201.00 3.92L199.81 3.92L199.81 4.19C199.81 4.34 199.91 4.42 200.09 4.44L200.23 4.44C200.30 4.44 200.40 4.45 200.54 4.45C200.68 4.45 200.83 4.47 201.00 4.47L201.00 13.26C200.83 13.26 200.68 13.27 200.54 13.27C200.40 13.27 200.30 13.29 200.23 13.29L200.09 13.29C199.91 13.30 199.82 13.38 199.82 13.54L199.82 13.82L201.00 13.82L206.93 13.82L206.93 13.22L206.93 11.76L206.58 11.76C206.39 11.76 206.30 11.89 206.29 12.11C206.29 12.14 206.28 12.19 206.28 12.29C206.28 12.39 206.28 12.53 206.26 12.74C206.25 12.95 206.23 13.09 206.23 13.22L201.71 13.22L201.71 9.09L205.66 9.09L205.66 8.51L201.71 8.51L201.71 4.51L206.23 4.51C206.26 5.12 206.29 5.50 206.29 5.63C206.30 5.85 206.39 5.96 206.58 5.96L206.93 5.96L206.93 4.51L206.93 3.92ZM221.89 11.97C221.69 11.97 221.61 12.08 221.59 12.31C221.59 12.32 221.59 12.38 221.58 12.43C221.56 12.49 221.56 12.59 221.55 12.71C221.54 12.84 221.52 13.01 221.51 13.20L217.42 13.20L217.42 4.47C217.59 4.47 217.73 4.45 217.87 4.45C218.01 4.45 218.12 4.44 218.19 4.44L218.32 4.44C218.50 4.42 218.60 4.34 218.60 4.19L218.60 3.92L217.42 3.92L216.71 3.92L215.52 3.92L215.52 4.19C215.52 4.34 215.61 4.42 215.80 4.44L215.94 4.44C216.01 4.44 216.10 4.45 216.24 4.45C216.38 4.45 216.54 4.47 216.71 4.47L216.71 13.26C216.54 13.26 216.38 13.27 216.24 13.27C216.10 13.27 216.01 13.29 215.94 13.29L215.80 13.29C215.61 13.30 215.52 13.38 215.52 13.54L215.52 13.82L216.71 13.82L221.98 13.82L222.11 13.82L222.24 13.82L222.24 13.55L222.24 12.99L222.24 11.97L221.96 11.97ZM236.89 4.68C236.31 4.17 235.42 3.92 234.26 3.92L231.85 3.92L230.66 3.92L230.66 4.19C230.66 4.34 230.76 4.42 230.94 4.44L231.08 4.44C231.15 4.44 231.25 4.45 231.39 4.45C231.53 4.45 231.69 4.47 231.85 4.47L231.85 13.26C231.69 13.26 231.53 13.27 231.39 13.27C231.25 13.27 231.15 13.29 231.08 13.29L230.94 13.29C230.76 13.30 230.66 13.38 230.66 13.54L230.66 13.82L231.85 13.82L232.57 13.82L233.74 13.82L233.74 13.54C233.74 13.38 233.65 13.30 233.46 13.29L233.34 13.29C233.27 13.29 233.16 13.27 233.02 13.27C232.88 13.27 232.74 13.26 232.57 13.26L232.57 9.83L234.26 9.83C234.81 9.83 235.30 9.74 235.73 9.60C236.17 9.45 236.53 9.25 236.84 8.99C237.15 8.72 237.38 8.41 237.54 8.05C237.71 7.69 237.78 7.29 237.78 6.86C237.78 5.92 237.48 5.18 236.89 4.68ZM236.87 7.81C236.74 8.11 236.56 8.36 236.32 8.57C236.08 8.78 235.79 8.95 235.44 9.07C235.09 9.20 234.70 9.25 234.26 9.25L232.57 9.25L232.57 4.48L234.26 4.48C235.19 4.48 235.89 4.69 236.36 5.10C236.82 5.50 237.06 6.09 237.06 6.85C237.06 7.20 236.99 7.52 236.87 7.81ZM247.16 3.92L245.97 3.92L245.97 4.19C245.97 4.34 246.06 4.42 246.25 4.44L246.39 4.44C246.46 4.44 246.55 4.45 246.69 4.45C246.83 4.45 246.99 4.47 247.16 4.47L247.16 13.26C246.99 13.26 246.83 13.27 246.69 13.27C246.55 13.27 246.46 13.29 246.39 13.29L246.25 13.29C246.06 13.30 245.98 13.38 245.98 13.54L245.98 13.82L247.16 13.82L253.09 13.82L253.09 13.22L253.09 11.76L252.74 11.76C252.55 11.76 252.46 11.89 252.45 12.11C252.45 12.14 252.43 12.19 252.43 12.29C252.43 12.39 252.43 12.53 252.42 12.74C252.41 12.95 252.39 13.09 252.39 13.22L247.87 13.22L247.87 9.09L251.82 9.09L251.82 8.51L247.87 8.51L247.87 4.51L252.39 4.51C252.42 5.12 252.45 5.50 252.45 5.63C252.46 5.85 252.55 5.96 252.74 5.96L253.09 5.96L253.09 4.51L253.09 3.92ZM270.68 6.80C270.45 6.19 270.13 5.68 269.71 5.25C269.29 4.82 268.80 4.48 268.23 4.26C267.65 4.03 266.99 3.92 266.29 3.92L262.86 3.92L261.67 3.92L261.67 4.19C261.67 4.34 261.77 4.42 261.95 4.44L262.09 4.44C262.16 4.44 262.26 4.45 262.40 4.45C262.54 4.45 262.70 4.47 262.86 4.47L262.86 13.26C262.70 13.26 262.54 13.27 262.40 13.27C262.26 13.27 262.16 13.29 262.09 13.29L261.95 13.29C261.77 13.30 261.67 13.38 261.67 13.54L261.67 13.82L262.86 13.82L266.29 13.82C266.99 13.82 267.65 13.71 268.23 13.48C268.80 13.26 269.29 12.92 269.71 12.49C270.13 12.05 270.45 11.54 270.68 10.92C270.90 10.30 271.03 9.63 271.03 8.86C271.03 8.11 270.90 7.42 270.68 6.80ZM269.99 10.72C269.79 11.27 269.54 11.72 269.19 12.10C268.84 12.47 268.42 12.75 267.93 12.95C267.44 13.15 266.90 13.24 266.29 13.24L263.58 13.24L263.58 4.49L266.29 4.49C266.90 4.49 267.44 4.59 267.93 4.79C268.42 4.98 268.84 5.26 269.19 5.64C269.54 6.02 269.79 6.47 269.99 7.01C270.19 7.56 270.28 8.18 270.28 8.86C270.28 9.56 270.19 10.18 269.99 10.72Z"></path></g></svg>